<svg xmlns="http://www.w3.org/2000/svg" version="1.1" xmlns:xlink="http://www.w3.org/1999/xlink" width="512" height="512" x="0" y="0" viewBox="0 0 32 32" style="enable-background:new 0 0 512 512" xml:space="preserve" class="">
<g>
<path d="M29.9 23.447 25.238 6.06a3.006 3.006 0 0 0-3.674-2.122l-2.9.777a2.96 2.96 0 0 0-1.169.628A3 3 0 0 0 15 4h-3a2.981 2.981 0 0 0-2 .78A2.981 2.981 0 0 0 8 4H5a3 3 0 0 0-3 3v18a3 3 0 0 0 3 3h3a2.981 2.981 0 0 0 2-.78 2.981 2.981 0 0 0 2 .78h3a3 3 0 0 0 3-3V13.819l3.2 11.957A3 3 0 0 0 24.1 28a3.031 3.031 0 0 0 .781-.1l2.9-.776a3 3 0 0 0 2.119-3.677zm-10.715-16.8 2.9-.777a1 1 0 0 1 1.225.708l.517 1.931L19 9.8l-.517-1.932a1 1 0 0 1 .702-1.221zM4 11h5v10H4zm7 0h5v10h-5zm1-5h3a1 1 0 0 1 1 1v2h-5V7a1 1 0 0 1 1-1zM4 7a1 1 0 0 1 1-1h3a1 1 0 0 1 1 1v2H4zm4 19H5a1 1 0 0 1-1-1v-2h5v2a1 1 0 0 1-1 1zm8-1a1 1 0 0 1-1 1h-3a1 1 0 0 1-1-1v-2h5zm3.512-13.265 4.829-1.294 2.589 9.66L22.1 21.4zm7.747 13.454-2.9.776a1 1 0 0 1-1.224-.707l-.518-1.932 4.83-1.294.518 1.932a1 1 0 0 1-.706 1.225z" fill="#fff" opacity="1" data-original="#fff">
</path>
</g>
</svg>