<svg xmlns="http://www.w3.org/2000/svg" version="1.1" xmlns:xlink="http://www.w3.org/1999/xlink" width="32" height="32" x="0" y="0" viewBox="0 0 24 24" style="enable-background:new 0 0 512 512" xml:space="preserve" class=""><g><path fill="#000000" fill-rule="evenodd" d="M3 12a9 9 0 1 1 17.998 0A9 9 0 0 1 3 12zm9-11C5.925 1 1 5.925 1 12c0 6.074 4.925 10.999 11 10.999s11-4.925 11-11C23 5.925 18.075 1 12 1zM9.172 7.757a1 1 0 0 0-1.415 1.415l2.829 2.827-2.829 2.828a1 1 0 0 0 1.415 1.415L12 13.413l2.829 2.83a1.002 1.002 0 0 0 1.631-.326 1 1 0 0 0-.217-1.09L13.414 12l2.829-2.828a1 1 0 0 0-1.414-1.415L12 10.586z" clip-rule="evenodd" opacity="1" data-original="#000000"></path></g></svg>